HIERARCHY
ROOT hips
{
  OFFSET 0 10.6860622 2.3727825e-15
  CHANNELS 6 Xposition Yposition Zposition Yrotation Xrotation Zrotation
  JOINT leftUpperLeg
  {
    OFFSET 0.6642549969 -0.9402397400000004 0
    CHANNELS 3 Yrotation Xrotation Zrotation
    JOINT leftLowerLeg
    {
      OFFSET 0 -3.997221335632195 0
      CHANNELS 3 Yrotation Xrotation Zrotation
      JOINT leftFoot
      {
        OFFSET -0.13777839790000004 -4.6145792000000005 -0.22186036399999998
        CHANNELS 3 Yrotation Xrotation Zrotation
        JOINT leftToes
        {
          OFFSET -0.03777410834999995 -0.9130806927000008 0.85230013
          CHANNELS 3 Yrotation Xrotation Zrotation
          End Site
          {
            OFFSET -0.03777410834999995 -0.9130806927000008 0.85230013
          }
        }
      }
    }
  }
  JOINT rightUpperLeg
  {
    OFFSET -0.6642778626 -0.9402397400000004 0
    CHANNELS 3 Yrotation Xrotation Zrotation
    JOINT rightLowerLeg
    {
      OFFSET 0 -3.997221452859387 0
      CHANNELS 3 Yrotation Xrotation Zrotation
      JOINT rightFoot
      {
        OFFSET 0.1377926176 -4.6145792000000005 -0.22185782299999995
        CHANNELS 3 Yrotation Xrotation Zrotation
        JOINT rightToes
        {
          OFFSET 0.037780746850000047 -0.9130806927000008 0.85230167
          CHANNELS 3 Yrotation Xrotation Zrotation
          End Site
          {
            OFFSET 0.037780746850000047 -0.9130806927000008 0.85230167
          }
        }
      }
    }
  }
  JOINT spine
  {
    OFFSET 0 0.13988381660000015 0
    CHANNELS 3 Yrotation Xrotation Zrotation
    JOINT chest
    {
      OFFSET 0 0.6191039003973773 0
      CHANNELS 3 Yrotation Xrotation Zrotation
      JOINT upperChest
      {
        OFFSET 0 0.9855186130586943 0
        CHANNELS 3 Yrotation Xrotation Zrotation
        JOINT leftShoulder
        {
          OFFSET 0.1807663869 1.5087829790000005 0
          CHANNELS 3 Yrotation Xrotation Zrotation
          JOINT leftUpperArm
          {
            OFFSET 0.5985063006419806 0 0
            CHANNELS 3 Yrotation Xrotation Zrotation
            JOINT leftLowerArm
            {
              OFFSET 2.2993332369501065 0 0
              CHANNELS 3 Yrotation Xrotation Zrotation
              JOINT leftHand
              {
                OFFSET 2.395047042602395 0 0
                CHANNELS 3 Yrotation Xrotation Zrotation
                JOINT leftIndexProximal
                {
                  OFFSET 0.5766295810000004 0.04556643899499946 0.17265095988184
                  CHANNELS 3 Yrotation Xrotation Zrotation
                  JOINT leftIndexIntermediate
                  {
                    OFFSET 0.2957229000000008 -0.019352197700001517 -0.007932640616999987
                    CHANNELS 3 Yrotation Xrotation Zrotation
                    JOINT leftIndexDistal
                    {
                      OFFSET 0.19008243099999922 -0.012484908149998475 -0.002786250786000012
                      CHANNELS 3 Yrotation Xrotation Zrotation
                      End Site
                      {
                        OFFSET 0.19008243099999922 -0.012484908149998475 -0.002786250786000012
                      }
                    }
                  }
                }
                JOINT leftMiddleProximal
                {
                  OFFSET 0.5834975091000001 0.0524350405149987 0.02204081888183999
                  CHANNELS 3 Yrotation Xrotation Zrotation
                  JOINT leftMiddleIntermediate
                  {
                    OFFSET 0.33880573540000003 -0.019871473270000717 -0.00000971183179999946
                    CHANNELS 3 Yrotation Xrotation Zrotation
                    JOINT leftMiddleDistal
                    {
                      OFFSET 0.20676022730000088 -0.012221336379999448 0.0001471936708000235
                      CHANNELS 3 Yrotation Xrotation Zrotation
                      End Site
                      {
                        OFFSET 0.20676022730000088 -0.012221336379999448 0.0001471936708000235
                      }
                    }
                  }
                }
                JOINT leftLittleProximal
                {
                  OFFSET 0.5344154683999995 -0.012880921405001189 -0.24414037221816004
                  CHANNELS 3 Yrotation Xrotation Zrotation
                  JOINT leftLittleIntermediate
                  {
                    OFFSET 0.21758961730000093 -0.011650919939999227 0.011893592810000034
                    CHANNELS 3 Yrotation Xrotation Zrotation
                    JOINT leftLittleDistal
                    {
                      OFFSET 0.1475273964999999 -0.008152365682999818 0.006001092492999946
                      CHANNELS 3 Yrotation Xrotation Zrotation
                      End Site
                      {
                        OFFSET 0.1475273964999999 -0.008152365682999818 0.006001092492999946
                      }
                    }
                  }
                }
                JOINT leftRingProximal
                {
                  OFFSET 0.5799399463000003 0.026911854694997794 -0.12150566991816003
                  CHANNELS 3 Yrotation Xrotation Zrotation
                  JOINT leftRingIntermediate
                  {
                    OFFSET 0.26167887460000006 -0.013480186499999602 0.010996293000000053
                    CHANNELS 3 Yrotation Xrotation Zrotation
                    JOINT leftRingDistal
                    {
                      OFFSET 0.17667108799999987 -0.008990287899999228 0.0055541023999999065
                      CHANNELS 3 Yrotation Xrotation Zrotation
                      End Site
                      {
                        OFFSET 0.17667108799999987 -0.008990287899999228 0.0055541023999999065
                      }
                    }
                  }
                }
                JOINT leftThumbProximal
                {
                  OFFSET 0.11018806699999972 -0.09448718900500053 0.17047963138184
                  CHANNELS 3 Yrotation Xrotation Zrotation
                  JOINT leftThumbIntermediate
                  {
                    OFFSET 0.31062601459999983 -0.08126270900000132 0.15443142000000007
                    CHANNELS 3 Yrotation Xrotation Zrotation
                    JOINT leftThumbDistal
                    {
                      OFFSET 0.21627175790000086 -0.08833193599999878 0.018771167799999988
                      CHANNELS 3 Yrotation Xrotation Zrotation
                      End Site
                      {
                        OFFSET 0.21627175790000086 -0.08833193599999878 0.018771167799999988
                      }
                    }
                  }
                }
              }
            }
          }
        }
        JOINT neck
        {
          OFFSET 0 1.5463305265074576 0
          CHANNELS 3 Yrotation Xrotation Zrotation
          JOINT head
          {
            OFFSET 0 0.8456443600000344 0
            CHANNELS 3 Yrotation Xrotation Zrotation
            JOINT leftEye
            {
              OFFSET 0.30408573140000006 0.5104519199999995 0.1276382305
              CHANNELS 3 Yrotation Xrotation Zrotation
              End Site
              {
                OFFSET 0.30408573140000006 0.5104519199999995 0.1276382305
              }
            }
            JOINT rightEye
            {
              OFFSET -0.30409491089999996 0.5104519199999995 0.1276379445
              CHANNELS 3 Yrotation Xrotation Zrotation
              End Site
              {
                OFFSET -0.30409491089999996 0.5104519199999995 0.1276379445
              }
            }
            JOINT jaw
            {
              OFFSET -3.155239131000001e-7 -0.11984121820000082 0.60178107
              CHANNELS 3 Yrotation Xrotation Zrotation
              End Site
              {
                OFFSET -3.155239131000001e-7 -0.11984121820000082 0.60178107
              }
            }
          }
        }
        JOINT rightShoulder
        {
          OFFSET -0.1807303465 1.5087829790000005 0
          CHANNELS 3 Yrotation Xrotation Zrotation
          JOINT rightUpperArm
          {
            OFFSET -0.5985063796536958 0 0
            CHANNELS 3 Yrotation Xrotation Zrotation
            JOINT rightLowerArm
            {
              OFFSET -2.2993322059002854 0 0
              CHANNELS 3 Yrotation Xrotation Zrotation
              JOINT rightHand
              {
                OFFSET -2.395045314457259 0 0
                CHANNELS 3 Yrotation Xrotation Zrotation
                JOINT rightIndexProximal
                {
                  OFFSET -0.5764487688300002 0.0441371204405987 0.17361932004999997
                  CHANNELS 3 Yrotation Xrotation Zrotation
                  JOINT rightIndexIntermediate
                  {
                    OFFSET -0.29573011380000047 -0.01934826376999843 -0.007698921482999974
                    CHANNELS 3 Yrotation Xrotation Zrotation
                    JOINT rightIndexDistal
                    {
                      OFFSET -0.19008373999999884 -0.012503266380000655 -0.0026365778999999897
                      CHANNELS 3 Yrotation Xrotation Zrotation
                      End Site
                      {
                        OFFSET -0.19008373999999884 -0.012503266380000655 -0.0026365778999999897
                      }
                    }
                  }
                }
                JOINT rightMiddleProximal
                {
                  OFFSET -0.5834852037300005 0.05211639405060153 0.02307162440000001
                  CHANNELS 3 Yrotation Xrotation Zrotation
                  JOINT rightMiddleIntermediate
                  {
                    OFFSET -0.33880114510000003 -0.019952774050000954 0.0002455003561999819
                    CHANNELS 3 Yrotation Xrotation Zrotation
                    JOINT rightMiddleDistal
                    {
                      OFFSET -0.20675694929999955 -0.012273788999999091 0.00030209124000002766
                      CHANNELS 3 Yrotation Xrotation Zrotation
                      End Site
                      {
                        OFFSET -0.20675694929999955 -0.012273788999999091 0.00030209124000002766
                      }
                    }
                  }
                }
                JOINT rightLittleProximal
                {
                  OFFSET -0.5346811737299992 -0.011214256288399227 -0.24363941305000003
                  CHANNELS 3 Yrotation Xrotation Zrotation
                  JOINT rightLittleIntermediate
                  {
                    OFFSET -0.21757715980000092 -0.011771559690000988 0.01201554387
                    CHANNELS 3 Yrotation Xrotation Zrotation
                    JOINT rightLittleDistal
                    {
                      OFFSET -0.1475201849000004 -0.00822055339600003 0.006082065407000015
                      CHANNELS 3 Yrotation Xrotation Zrotation
                      End Site
                      {
                        OFFSET -0.1475201849000004 -0.00822055339600003 0.006082065407000015
                      }
                    }
                  }
                }
                JOINT rightRingProximal
                {
                  OFFSET -0.5800810755299999 0.027657985680600072 -0.12066365025000003
                  CHANNELS 3 Yrotation Xrotation Zrotation
                  JOINT rightRingIntermediate
                  {
                    OFFSET -0.26166445029999974 -0.013623118409999302 0.011164098990000045
                    CHANNELS 3 Yrotation Xrotation Zrotation
                    JOINT rightRingDistal
                    {
                      OFFSET -0.17666387530000027 -0.009072900100000503 0.005668185599999959
                      CHANNELS 3 Yrotation Xrotation Zrotation
                      End Site
                      {
                        OFFSET -0.17666387530000027 -0.009072900100000503 0.005668185599999959
                      }
                    }
                  }
                }
                JOINT rightThumbProximal
                {
                  OFFSET -0.10997596379000074 -0.09577489355940072 0.16989765924999997
                  CHANNELS 3 Yrotation Xrotation Zrotation
                  JOINT rightThumbIntermediate
                  {
                    OFFSET -0.31036620999999986 -0.08229339117999834 0.15440884469999996
                    CHANNELS 3 Yrotation Xrotation Zrotation
                    JOINT rightThumbDistal
                    {
                      OFFSET -0.21631306399999906 -0.08825326400000111 0.018656797720000014
                      CHANNELS 3 Yrotation Xrotation Zrotation
                      End Site
                      {
                        OFFSET -0.21631306399999906 -0.08825326400000111 0.018656797720000014
                      }
                    }
                  }
                }
              }
            }
          }
        }
      }
    }
  }
}
MOTION
Frames: 6
Frame Time: 0.03333333333333333
0.19428594449121328 -0.10238359973512771 9.168974050229178 180 -2.9241479535329327 3.5841608861270894e-16 8.581386711508973 -11.083762301030406 3.1339927208681044 2.2440318746588876 25.319293988238606 5.604373685824977 7.086230648423577 -10.615820866863098 -16.354741647563223 0 0 0 -6.8638880084657 -10.575460393405292 -0.2671507801573224 -2.2462419679385652 25.50817430921065 -5.661347765271553 -10.99299268234962 -10.137326333362305 14.818534650073046 0 0 0 -0.2903651775730017 -1.766627126555779 -0.47130508240588764 -1.8416238687508348 31.258377175224783 -1.287177161726435 0 0 0 -22.819322772745423 -0.6927505655452891 -7.778963769968221 -6.407037331561792 -16.547294380168314 -58.34633707603327 -49.28463646655465 3.965734101383976 -17.004798261493406 1.5142117821357153 -0.6186471199905123 1.2252660718135804 0 0 0 0 0 0 0 0 0 0 0 0 0 0 0 0 0 0 0 0 0 0 0 0 0 0 0 0 0 0 0 0 0 0 0 0 0 0 0 0 0 0 0 0 0 0.18748593551162332 -26.431808375000063 6.240972303749406 0 -15.045818692059159 0 0 0 0 0 0 0 0 0 0 24.67365323292962 -1.6007367049057255 9.669775826685004 6.167398455692102 -14.734895084362785 60.318710285916346 49.885325578390486 3.7249574635425557 17.317803601127576 -4.075592040508795 0.30722909075658406 -3.982218775726397 0 0 0 0 0 0 0 0 0 0 0 0 0 0 0 0 0 0 0 0 0 0 0 0 0 0 0 0 0 0 0 0 0 0 0 0 0 0 0 0 0 0 0 0 0
0.19428594449121328 -0.10238359973512771 9.178124079542545 180 -2.3472629982329245 2.8761774298268884e-16 8.662337103126962 -11.821288983643834 3.0323388842773276 2.2440318746588876 25.319293988238606 5.604373685824977 7.086230648423577 -10.615820866863098 -16.354741647563223 0 0 0 -7.07791160711882 -11.317858363302824 -0.19659713807065074 -2.2462419679385652 25.50817430921065 -5.661347765271553 -10.779731720479981 -10.169934645837051 14.782698365804793 0 0 0 -0.2903651775730017 -1.766627126555779 -0.47130508240588764 -1.832448195816623 30.782588372626826 -1.2692998188919093 0 0 0 -22.689951107736945 -0.5196807344168315 -7.737996540350674 -6.392046520961208 -16.457004299531555 -58.43844069251121 -49.64715226997748 3.840892144878984 -17.154004766875495 1.4559599574049729 -0.4110443101375572 1.503261205319337 0 0 0 0 0 0 0 0 0 0 0 0 0 0 0 0 0 0 0 0 0 0 0 0 0 0 0 0 0 0 0 0 0 0 0 0 0 0 0 0 0 0 0 0 0 0.19485562798042128 -26.293055359145082 6.2071236120290525 0 -15.266467508751454 0 0 0 0 0 0 0 0 0 0 24.55499906190546 -1.423672216068304 9.643108884773225 6.167398455692102 -14.734895084362785 60.318710285916346 50.22858514732988 3.605330452595719 17.458155214501517 -3.9902235494673333 0.49549317810183446 -4.252011992819746 0 0 0 0 0 0 0 0 0 0 0 0 0 0 0 0 0 0 0 0 0 0 0 0 0 0 0 0 0 0 0 0 0 0 0 0 0 0 0 0 0 0 0 0 0
0.19428594449121328 -0.10238359973512771 9.187274108855913 180 -1.7704339956115012 2.168846600290017e-16 8.744837935373539 -12.558547073193745 2.929353129706866 2.2440318746588876 25.319293988238606 5.604373685824977 7.086230648423577 -10.615820866863098 -16.354741647563223 0 0 0 -7.293404099344534 -12.059855726544203 -0.12303260754526352 -2.2462419679385652 25.50817430921065 -5.661347765271553 -10.566430566198726 -10.202413561693117 14.746733806847441 0 0 0 -0.2903651775730017 -1.766627126555779 -0.47130508240588764 -1.8234892234553874 30.30682364777369 -1.2515988874787218 0 0 0 -22.560462482816696 -0.3467070805017419 -7.69663969200447 -6.37721497184311 -16.36668504332048 -58.53045811195745 -50.009260328092004 3.715119618800253 -17.302390391472347 1.3987193060165932 -0.203170539140262 1.7810278521640337 0 0 0 0 0 0 0 0 0 0 0 0 0 0 0 0 0 0 0 0 0 0 0 0 0 0 0 0 0 0 0 0 0 0 0 0 0 0 0 0 0 0 0 0 0 0.2021276633064984 -26.154260811403894 6.173325434665139 0 -15.48710220429525 0 0 0 0 0 0 0 0 0 0 24.436281678417608 -1.2466667997672547 9.61607885453842 6.167398455692102 -14.734895084362785 60.318710285916346 50.57148648155417 3.484874940912361 17.597759860304375 -3.9057425353133373 0.6841499360976664 -4.521523717115072 0 0 0 0 0 0 0 0 0 0 0 0 0 0 0 0 0 0 0 0 0 0 0 0 0 0 0 0 0 0 0 0 0 0 0 0 0 0 0 0 0 0 0 0 0
0.19428594449121328 -0.10238359973512771 9.196424138169279 180 -1.1936899765326927 1.4620602331647182e-16 8.828922796674831 -13.295471815098699 2.824998574200146 2.2440318746588876 25.319293988238606 5.604373685824977 7.086230648423577 -10.615820866863098 -16.354741647563223 0 0 0 -7.510429980216106 -12.8013737155046 -0.04641768432580533 -2.2462419679385652 25.50817430921065 -5.661347765271553 -10.353089513197736 -10.234755243617299 14.71064004808345 0 0 0 -0.2903651775730017 -1.766627126555779 -0.47130508240588764 -1.814743919840119 29.83110716460563 -1.234070673661922 0 0 0 -22.430857167918077 -0.17383132913890073 -7.654895937169287 -6.362543543124524 -16.27634710091164 -58.62241529293288 -50.370976329811086 3.5884201712864283 -17.449942439911162 1.342490954436051 0.004967636943719035 2.0585703797601194 0 0 0 0 0 0 0 0 0 0 0 0 0 0 0 0 0 0 0 0 0 0 0 0 0 0 0 0 0 0 0 0 0 0 0 0 0 0 0 0 0 0 0 0 0 0.20930139565905356 -26.015418366958425 6.139578096598216 0 -15.707720689362596 0 0 0 0 0 0 0 0 0 0 24.317486574633215 -1.0697207821457237 9.588685305175312 6.167398455692102 -14.734895084362785 60.318710285916346 50.91403117188493 3.363594996060369 17.73661851494951 -3.8221491207050775 0.8731922176874394 -4.790753952071893 0 0 0 0 0 0 0 0 0 0 0 0 0 0 0 0 0 0 0 0 0 0 0 0 0 0 0 0 0 0 0 0 0 0 0 0 0 0 0 0 0 0 0 0 0
0.19428594449121328 -0.10238359973512771 9.205574167482647 180 -0.6170619970533253 7.557122293443019e-17 8.914623245991239 -14.031992624498134 2.719238803795808 2.2440318746588876 25.319293988238606 5.604373685824977 7.086230648423577 -10.615820866863098 -16.354741647563223 0 0 0 -7.729053355297524 -13.542333614364924 0.03328750902013621 -2.2462419679385652 25.50817430921065 -5.661347765271553 -10.139714180312456 -10.26696573368528 14.674423846687786 0 0 0 -0.2903651775730017 -1.766627126555779 -0.47130508240588764 -1.806208412772793 29.355450729954974 -1.2167106865068615 0 0 0 -22.30112937814552 -0.0010561847015391518 -7.612761524570775 -6.348027583352449 -16.185990273747304 -58.71431507025188 -50.73227348407635 3.4608102542351538 -17.59665640383182 1.287273802725986 0.21335976794465678 2.335888027540335 0 0 0 0 0 0 0 0 0 0 0 0 0 0 0 0 0 0 0 0 0 0 0 0 0 0 0 0 0 0 0 0 0 0 0 0 0 0 0 0 0 0 0 0 0 0.21637731877173227 -25.876546360411428 6.105881936659255 0 -15.928320860750103 0 0 0 0 0 0 0 0 0 0 24.198611412929562 -0.8928366806101653 9.560922758202345 6.167398455692102 -14.734895084362785 60.318710285916346 51.25620113675112 3.241498511746701 17.874715419487796 -3.7394488116679554 1.0626112453614045 -5.059705408395304 0 0 0 0 0 0 0 0 0 0 0 0 0 0 0 0 0 0 0 0 0 0 0 0 0 0 0 0 0 0 0 0 0 0 0 0 0 0 0 0 0 0 0 0 0
0.19428594449121328 -0.10238359973512771 9.214724196796013 180 -0.04057800050369316 4.969372462738728e-18 9.001977723953766 -14.768045226048763 2.6120340048543347 2.2440318746588876 25.319293988238606 5.604373685824977 7.086230648423577 -10.615820866863098 -16.354741647563223 0 0 0 -7.9493411215471195 -14.282653968051779 0.11612797536800915 -2.2462419679385652 25.50817430921065 -5.661347765271553 -9.926300809946092 -10.29904066328454 14.63808092189959 0 0 0 -0.2903651775730017 -1.766627126555779 -0.47130508240588764 -1.7978776270885282 28.879883348605222 -1.1995156587335178 0 0 0 -22.171276482619962 0.1716176440977476 -7.570236194606581 -6.333672908333452 -16.095607254402278 -58.806128244469726 -51.09315524268202 3.3322943130533456 -17.742528819807756 1.2330715737035485 0.4219960341418968 2.612985283424484 0 0 0 0 0 0 0 0 0 0 0 0 0 0 0 0 0 0 0 0 0 0 0 0 0 0 0 0 0 0 0 0 0 0 0 0 0 0 0 0 0 0 0 0 0 0.22335695031875244 -25.737632708135795 6.072233098394187 0 -16.14891482247792 0 0 0 0 0 0 0 0 0 0 24.07966288307048 -0.7160169087044959 9.53279859510251 6.167398455692102 -14.734895084362785 60.318710285916346 51.59800771638714 3.1185969915478386 18.01205319717012 -3.657639248846641 1.2523985847515609 -5.328378566506188 0 0 0 0 0 0 0 0 0 0 0 0 0 0 0 0 0 0 0 0 0 0 0 0 0 0 0 0 0 0 0 0 0 0 0 0 0 0 0 0 0 0 0 0 0
